<svg width="50" xmlns="http://www.w3.org/2000/svg" viewBox="178.54000854492188 12.780004882812499 142.91998291015625 124.439990234375" style="background: none;" preserveAspectRatio="xMidYMid"><defs><linearGradient id="editing-gradient-gradient" x1="0" x2="1" y1="0.5" y2="0.5" gradientUnits="objectBoundingBox"><stop offset="0" stop-color="#696cff"></stop><stop offset="1" stop-color="#00ffff"></stop></linearGradient></defs><g><g transform="translate(206.32000291347504, 97.01499938964844)"><path d="M7.68 0L0.64 0L8.32-42.24L22.08-42.24L32.06-13.18L37.38-42.24L44.48-42.18L36.67 0L22.02 0L12.80-27.97L7.68 0ZM59.20 0L45.50 0L53.31-42.05L53.31-42.05Q59.65-42.75 68.90-42.75L68.90-42.75L68.90-42.75Q78.14-42.75 82.43-40.06L82.43-40.06L82.43-40.06Q86.72-37.38 86.72-31.97L86.72-31.97L86.72-31.97Q86.72-26.56 83.94-23.17L83.94-23.17L83.94-23.17Q81.15-19.78 76.35-18.69L76.35-18.69L76.35-18.69Q77.44-13.38 79.94-9.09L79.94-9.09L79.94-9.09Q82.24-5.06 84.93-3.78L84.93-3.78L84.93-3.78Q83.97-1.09 82.02 0.10L82.02 0.10L82.02 0.10Q80.06 1.28 77.28 1.28L77.28 1.28L77.28 1.28Q74.50 1.28 72.32-0.35L72.32-0.35L72.32-0.35Q70.14-1.98 68.42-4.99L68.42-4.99L68.42-4.99Q64.77-11.52 64.38-21.82L64.38-21.82L64.83-21.82L64.83-21.82Q69.57-21.95 71.94-24.42L71.94-24.42L71.94-24.42Q74.30-26.88 74.30-32.06L74.30-32.06L74.30-32.06Q74.30-38.53 68.86-38.78L68.86-38.78L67.46-38.78L67.46-38.78Q66.88-38.78 66.56-38.72L66.56-38.72L59.20 0Z" fill="url(#editing-gradient-gradient)"></path></g></g><style>text {
  font-size: 64px;
  font-family: Arial Black;
  dominant-baseline: central;
  text-anchor: middle;
}</style></svg>
